<svg id="Layer_1" data-name="Layer 1" xmlns="http://www.w3.org/2000/svg" xmlns:xlink="http://www.w3.org/1999/xlink" viewBox="0 0 2688.008 982.2251"><image width="512" height="512" transform="translate(0 242.0103) scale(0.75)" xlink:href="../../../../../Desktop/beer-bottle.png"/><rect x="903.6788" y="78.5587" width="651.3812" height="691.9718" style="fill:#231f20;stroke:#231f20;stroke-miterlimit:10"/><path d="M213.3983,245.5114H173.5327s-7.2484,2.8994-9.4228,8.698-5.0739,6.5235,0,11.5973a35.4572,35.4572,0,0,1,7.3691,11.1141l-.3624,18.2415L167.734,330.8s-2.5369,29.8388-2.8993,33.7046.2416,13.8926-1.0873,19.812-8.3355,15.2215-8.3355,15.2215-9.06,11.4765-10.3893,14.6174-4.1073,4.8322-4.5905,16.9127-.4833,17.5167-.4833,17.5167v98.577l-.2416,51.7046s-.604,4.953,0,7.49-.604,4.5906,3.6242,9.5436,12.3221,5.7987,12.3221,5.7987h70.55s4.1074.9664,9.1812-2.2953,7.8523-10.7517,8.2147-12.5637,0-70.067,0-70.067V422.6117a31.1143,31.1143,0,0,0-5.0738-11.2348c-4.2282-6.1611-10.8724-13.047-12.2013-16.55s-6.8859-9.5436-7.7315-18.8456-1.2081-37.812-1.2081-37.812l-3.5033-48.8053.1208-12.8054s9.1812-4.953,8.8187-10.51-.8456-13.2886-3.2617-17.0335A7.2429,7.2429,0,0,0,213.3983,245.5114Z" style="fill:none;stroke:#231f20;stroke-miterlimit:10"/><path d="M2457.6443,49.2952,2414.0321,5.683s-6.9909-6.0111-15.7134-2.0464-13.5485,3.4856-16.7975,13.9406a106.1992,106.1992,0,0,0-4.0969,20.22l-20.3524,19.5594-42.6871,35.2863s-35.4184,29.8677-40.0439,33.7-14.9339,15.4625-22.8634,20.4845-25.7708,7.5331-25.7708,7.5331-22.4669,2.6431-27.3568,4.6255-9.78.7929-23.5241,13.48-19.6916,18.6343-19.6916,18.6343L2047.2931,298.942l-56.828,56.2994s-6.0793,4.7577-8.1938,8.1938-5.6828,4.3612-6.4758,14.4052,7.1366,19.8238,7.1366,19.8238l26.0352,26.0351,51.1452,51.1452s3.4361,5.5507,12.555,7.533,20.3524-3.1717,22.7312-4.7576,76.6517-76.6518,76.6517-76.6518l75.7267-75.7266,49.1628-49.1629s4.6256-6.4757,6.74-17.8413,2.3788-26.1673,4.7577-31.4537,2.9075-17.9735,12.1585-29.0748,40.044-42.6871,40.044-42.6871L2410.2,97.7973,2424.34,83.9206s15.4625,4.6256,21.1453-1.85,13.6123-15.4625,15.066-22.2025A11.2056,11.2056,0,0,0,2457.6443,49.2952Z" style="fill:#fff"/><path d="M2025.035,3.2042l-43.6122,43.6122s-6.0111,6.9909-2.0464,15.7133,3.4856,13.5485,13.9406,16.7976a106.2084,106.2084,0,0,0,20.22,4.0969l19.56,20.3523,35.2862,42.6871s29.8677,35.4184,33.7,40.044,15.4625,14.9338,20.4845,22.8633,7.5331,25.7709,7.5331,25.7709,2.6431,22.4669,4.6255,27.3567.7929,9.78,13.48,23.5242,18.6343,19.6915,18.6343,19.6915l107.8411,107.8411,56.2994,56.828s4.7577,6.0793,8.1938,8.1938,4.3612,5.6828,14.4052,6.4758,19.8238-7.1366,19.8238-7.1366l26.0351-26.0351,51.1452-51.1452s5.5507-3.4362,7.5331-12.5551-3.1718-20.3523-4.7577-22.7312-76.6518-76.6517-76.6518-76.6517l-75.7266-75.7267-49.1629-49.1628s-6.4757-4.6255-17.8413-6.74-26.1673-2.3788-31.4537-4.7577-17.9735-2.9074-29.0748-12.1585-42.6871-40.0439-42.6871-40.0439l-57.2244-49.5594L2059.66,36.508s4.6256-15.4625-1.85-21.1453S2042.3477,1.75,2035.6077.2967A11.2055,11.2055,0,0,0,2025.035,3.2042Z" style="fill:#fff"/><text transform="translate(1748.5813 794.3672)" style="font-size:311.27874755859375px;fill:#fff;font-family:DINCondensed-Bold, DIN Condensed;font-weight:700">BREWLOC</text><text transform="translate(1827.9231 948.4912)" style="font-size:134.93869018554688px;fill:#fff;font-family:FuturaPT-Book, Futura PT">Find <tspan x="252.4619" y="0" style="letter-spacing:-0.09899605827751545em">Y</tspan><tspan x="310.6211" y="0">our B</tspan><tspan x="587.1035" y="0" style="letter-spacing:-0.023983693042743344em">r</tspan><tspan x="623.8076" y="0" style="letter-spacing:-0.0000072370829941893005em">ew</tspan></text></svg>