<svg id="Layer_1" data-name="Layer 1" xmlns="http://www.w3.org/2000/svg" viewBox="0 0 939.4268 982.2579"><path d="M709.063,49.3278,665.4509,5.7154S658.46-.2957,649.7375,3.6691,636.1889,7.1547,632.94,17.61a106.1961,106.1961,0,0,0-4.0969,20.22L608.4907,57.3891l-42.687,35.2862s-35.4185,29.8678-40.044,33.7-14.9338,15.4625-22.8632,20.4845-25.771,7.533-25.771,7.533-22.4668,2.6432-27.3567,4.6255-9.78.793-23.5242,13.48-19.6914,18.6343-19.6914,18.6343L298.7121,298.9736,241.8842,355.273s-6.0793,4.7577-8.1938,8.1938-5.6829,4.3613-6.4758,14.4053,7.1364,19.8237,7.1364,19.8237l26.0352,26.0352,51.1453,51.1452s3.436,5.5506,12.5549,7.533,20.3523-3.1718,22.7312-4.7577S423.4692,401,423.4692,401l75.7266-75.7267L548.3586,276.11s4.6255-6.4758,6.74-17.8414,2.3789-26.1673,4.7578-31.4536,2.9075-17.9735,12.1587-29.0748,40.044-42.6871,40.044-42.6871l49.5593-57.2245L675.76,83.9523s15.4624,4.6255,21.1453-1.85S710.5171,66.64,711.9707,59.9A11.2059,11.2059,0,0,0,709.063,49.3278Z" style="fill:#fff"/><path d="M276.4538,3.2366,232.8415,46.8488S226.83,53.84,230.7951,62.5621s3.4856,13.5486,13.9407,16.7976a106.2038,106.2038,0,0,0,20.22,4.0969l19.5593,20.3524,35.2861,42.6871s29.868,35.4184,33.7,40.0439,15.4624,14.9339,20.4846,22.8634,7.533,25.7708,7.533,25.7708,2.6433,22.4669,4.6255,27.3569.7929,9.78,13.48,23.5241,18.6343,19.6915,18.6343,19.6915L526.1006,413.5878,582.4,470.4159s4.7578,6.0792,8.1938,8.1938,4.3611,5.6828,14.4053,6.4757,19.8237-7.1365,19.8237-7.1365l26.0352-26.0352,51.1452-51.1452s5.5506-3.4361,7.533-12.555-3.1719-20.3524-4.7578-22.7312-76.6516-76.6518-76.6516-76.6518L552.4,213.1039,503.237,163.941s-6.4758-4.6255-17.8413-6.74-26.1672-2.3789-31.4536-4.7577-17.9734-2.9075-29.0747-12.1586-42.687-40.0439-42.687-40.0439L324.9558,50.6814,311.0791,36.5405s4.6255-15.4625-1.85-21.1453S293.7666,1.7829,287.0263.3291A11.2057,11.2057,0,0,0,276.4538,3.2366Z" style="fill:#fff"/><text transform="translate(0.0001 794.3996)" style="isolation:isolate;font-size:311.27874755859375px;fill:#fff;font-family:DINCondensed-Bold, DIN Condensed;font-weight:700">BREWLOC</text><g style="isolation:isolate"><text transform="translate(79.3419 948.5236)" style="isolation:isolate;font-size:134.93869018554688px;fill:#fff;font-family:FuturaPT-Book, Futura PT">Find </text><text transform="translate(331.8038 948.5236)" style="isolation:isolate;font-size:134.93869018554688px;fill:#fff;font-family:FuturaPT-Book, Futura PT;letter-spacing:-0.09800095936581442em">Y</text><text transform="translate(389.963 948.5236)" style="isolation:isolate;font-size:134.93869018554688px;fill:#fff;font-family:FuturaPT-Book, Futura PT">our B</text><text transform="translate(666.4454 948.5236)" style="isolation:isolate;font-size:134.93869018554688px;fill:#fff;font-family:FuturaPT-Book, Futura PT;letter-spacing:-0.0229994497555336em">r</text><text transform="translate(703.1495 948.5236)" style="isolation:isolate;font-size:134.93869018554688px;fill:#fff;font-family:FuturaPT-Book, Futura PT">ew</text></g></svg>