<svg id="Layer_1" data-name="Layer 1" xmlns="http://www.w3.org/2000/svg" viewBox="0 0 1000 1000"><defs><style>.cls-1,.cls-2,.cls-3{fill:#fff;}.cls-2{font-size:145.8693px;font-family:DINCondensed-Bold, DIN Condensed;font-weight:700;}.cls-3{font-size:63.234px;font-family:FuturaPT-Book, Futura PT;}.cls-4{letter-spacing:-0.099em;}.cls-5{letter-spacing:-0.024em;}</style></defs><path class="cls-1" d="M632.0173,306.8228,611.58,286.3856a7.1924,7.1924,0,0,0-7.3635-.959c-4.0875,1.858-6.349,1.6334-7.8716,6.5328a49.7664,49.7664,0,0,0-1.92,9.4754l-9.5374,9.1658L564.884,327.1362s-16.5975,13.9964-18.7651,15.7924-6.9982,7.246-10.714,9.5994-12.0766,3.53-12.0766,3.53-10.5283,1.2387-12.82,2.1676-4.5829.3716-11.0237,6.317-9.2278,8.7323-9.2278,8.7323l-50.5357,50.5357-26.63,26.3826a21.0916,21.0916,0,0,0-3.84,3.84c-.9909,1.61-2.663,2.0437-3.0346,6.75s3.3443,9.29,3.3443,9.29l12.2,12.2,23.9673,23.9673a9.2918,9.2918,0,0,0,5.8834,3.53c4.2733.929,9.5374-1.4863,10.6522-2.2295s35.92-35.92,35.92-35.92l35.4865-35.4865,23.0384-23.0384a22.5594,22.5594,0,0,0,3.1584-8.3607c.9909-5.326,1.1148-12.2623,2.23-14.74s1.3624-8.4226,5.6976-13.6248S586.56,356.3677,586.56,356.3677l23.2242-26.8162,6.6266-6.5027s7.2459,2.1676,9.909-.8671,6.3789-7.2459,7.06-10.4044A5.2512,5.2512,0,0,0,632.0173,306.8228Z"/><path class="cls-1" d="M429.2909,285.224l-20.4372,20.4372a7.1923,7.1923,0,0,0-.959,7.3635c1.858,4.0874,1.6334,6.349,6.5328,7.8716a49.7664,49.7664,0,0,0,9.4754,1.92l9.1658,9.5374,16.5356,20.0037s13.9964,16.5976,15.7924,18.7652,7.246,6.9982,9.5994,10.714,3.53,12.0766,3.53,12.0766,1.2387,10.5283,2.1676,12.82.3716,4.5829,6.317,11.0237,8.7323,9.2278,8.7323,9.2278L546.2787,477.52l26.3826,26.63a21.0916,21.0916,0,0,0,3.84,3.84c1.61.9909,2.0437,2.663,6.75,3.0346s9.29-3.3443,9.29-3.3443l12.2-12.2,23.9673-23.9673a9.2919,9.2919,0,0,0,3.53-5.8835c.929-4.2732-1.4863-9.5373-2.23-10.6521s-35.92-35.92-35.92-35.92L558.603,383.5705l-23.0384-23.0384a22.5594,22.5594,0,0,0-8.3607-3.1584c-5.326-.9909-12.2623-1.1148-14.74-2.23s-8.4226-1.3624-13.6248-5.6976-20.0037-18.7651-20.0037-18.7651L452.02,307.4572l-6.5027-6.6266s2.1676-7.2459-.8671-9.909-7.2459-6.3789-10.4044-7.06A5.2512,5.2512,0,0,0,429.2909,285.224Z"/><text class="cls-2" transform="translate(299.7404 655.9737)">BREWLOC</text><text class="cls-3" transform="translate(336.9222 728.1987)">Find <tspan class="cls-4" x="118.3066" y="0">Y</tspan><tspan x="145.5605" y="0">our B</tspan><tspan class="cls-5" x="275.124" y="0">r</tspan><tspan x="292.3242" y="0">ew</tspan></text></svg>