<svg id="Layer_1" data-name="Layer 1" xmlns="http://www.w3.org/2000/svg" xmlns:xlink="http://www.w3.org/1999/xlink" viewBox="0 0 2688.006 982.2258"><image width="512" height="512" transform="translate(0 242.0101) scale(0.75)" xlink:href="../../../../../Desktop/beer-bottle.png"/><rect x="903.6788" y="78.5585" width="651.3812" height="691.9718" style="fill:#231f20;stroke:#231f20;stroke-miterlimit:10"/><path d="M535.1042,271.2658H495.2385s-7.2483,2.8994-9.4228,8.698-5.0738,6.5235,0,11.5973a35.4564,35.4564,0,0,1,7.3692,11.1141l-.3625,18.2415L489.44,356.5543s-2.5369,29.8388-2.8993,33.7046.2416,13.8926-1.0873,19.812-8.3355,15.2215-8.3355,15.2215-9.06,11.4765-10.3893,14.6174-4.1073,4.8322-4.5906,16.9127-.4832,17.5168-.4832,17.5168v98.5769l-.2416,51.7046s-.604,4.953,0,7.49-.604,4.5906,3.6242,9.5437,12.3221,5.7986,12.3221,5.7986h70.55s4.1073.9664,9.1812-2.2953,7.8523-10.7517,8.2147-12.5637,0-70.067,0-70.067V448.3661a31.1143,31.1143,0,0,0-5.0738-11.2348c-4.2282-6.1611-10.8725-13.047-12.2013-16.55s-6.8859-9.5436-7.7316-18.8456-1.208-37.812-1.208-37.812l-3.5033-48.8053.1208-12.8053s9.1811-4.9531,8.8187-10.51-.8456-13.2886-3.2617-17.0335A7.2429,7.2429,0,0,0,535.1042,271.2658Z" transform="translate(-321.7059 -25.7546)" style="fill:none;stroke:#231f20;stroke-miterlimit:10"/><path d="M2779.3482,75.05,2735.736,31.4376s-6.9909-6.0111-15.7133-2.0463-13.5485,3.4856-16.7976,13.9406a106.1992,106.1992,0,0,0-4.0969,20.22l-20.3524,19.5594-42.687,35.2862s-35.4184,29.8678-40.044,33.7-14.9338,15.4625-22.8633,20.4845-25.7709,7.533-25.7709,7.533-22.4669,2.6432-27.3567,4.6255-9.78.793-23.5242,13.48-19.6915,18.6343-19.6915,18.6343l-107.8411,107.841-56.828,56.2994s-6.0793,4.7577-8.1938,8.1938-5.6828,4.3613-6.4758,14.4053,7.1365,19.8237,7.1365,19.8237l26.0352,26.0352,51.1452,51.1452s3.4361,5.5506,12.555,7.533,20.3524-3.1718,22.7313-4.7577,76.6517-76.6517,76.6517-76.6517l75.7266-75.7267,49.1629-49.1628s4.6255-6.4758,6.74-17.8414,2.3789-26.1673,4.7577-31.4536,2.9075-17.9735,12.1586-29.0748,40.0439-42.6871,40.0439-42.6871l49.5593-57.2245,14.141-13.8766s15.4625,4.6255,21.1453-1.85,13.6123-15.4625,15.066-22.2026A11.2057,11.2057,0,0,0,2779.3482,75.05Z" transform="translate(-321.7059 -25.7546)" style="fill:#fff"/><path d="M2346.739,28.9588,2303.1268,72.571s-6.0112,6.9909-2.0464,15.7133,3.4856,13.5486,13.9406,16.7976a106.1992,106.1992,0,0,0,20.22,4.0969l19.5594,20.3524,35.2862,42.6871s29.8678,35.4184,33.7,40.0439,15.4625,14.9339,20.4845,22.8634,7.533,25.7708,7.533,25.7708,2.6432,22.4669,4.6256,27.3568.7929,9.78,13.48,23.5241,18.6343,19.6916,18.6343,19.6916L2596.3858,439.31l56.2993,56.8281s4.7577,6.0792,8.1939,8.1938,4.3612,5.6828,14.4052,6.4757,19.8237-7.1365,19.8237-7.1365l26.0352-26.0352,51.1452-51.1452s5.5506-3.4361,7.533-12.555-3.1718-20.3524-4.7577-22.7312-76.6517-76.6518-76.6517-76.6518l-75.7267-75.7266-49.1628-49.1629s-6.4758-4.6255-17.8414-6.74-26.1673-2.3789-31.4536-4.7577-17.9735-2.9075-29.0748-12.1586-42.6871-40.0439-42.6871-40.0439L2395.241,76.4036l-13.8766-14.1409s4.6255-15.4625-1.85-21.1453-15.4625-13.6123-22.2026-15.0661A11.2055,11.2055,0,0,0,2346.739,28.9588Z" transform="translate(-321.7059 -25.7546)" style="fill:#fff"/><text transform="translate(1748.5793 794.3672)" style="font-size:311.27874755859375px;fill:#fff;font-family:DINCondensed-Bold, DIN Condensed;font-weight:700">BREWLOC</text><text transform="translate(1827.9211 948.4912)" style="font-size:134.93869018554688px;fill:#fff;font-family:FuturaPT-Book, Futura PT">Find <tspan x="252.4619" y="0" style="letter-spacing:-0.09899605827751545em">Y</tspan><tspan x="310.6211" y="0">our B</tspan><tspan x="587.1035" y="0" style="letter-spacing:-0.023983693042743344em">r</tspan><tspan x="623.8076" y="0" style="letter-spacing:-0.0000072370829941893005em">ew</tspan></text></svg>